# xmcd
#
# Track frame offsets:
#	180
#	20351
#	33997
#	49442
#	62939
#	78915
#	92606
#	105569
#
# Disc length: 1594 seconds
#
# Revision: 0
# Processed by: cddbd v1.5PL3 Copyright (c) Steve Scherf et al.
# Submitted via: dBpowerAMP V4.0
#
DISCID=5e063808
DTITLE=Vince Hopkins and The Texas Brigade - A Special Rainbow
DYEAR=1900
DGENRE=Blues
TTITLE0=A Special Rainbow
TTITLE1=Mr. Blues
TTITLE2=Julie
TTITLE3=Reasy Teddy
TTITLE4=Thats Just Us
TTITLE5=Blue Skies ( Turn To Gray )
TTITLE6=Tale Of The Border King
TTITLE7=Rock and Roll Fever
EXTD=
EXTT0=
EXTT1=
EXTT2=
EXTT3=
EXTT4=
EXTT5=
EXTT6=
EXTT7=
PLAYORDER=
